{
    "asset" : {
        "generator" : "Khronos glTF Blender I/O v0.9.36",
        "version" : "2.0"
    },
    "scene" : 0,
    "scenes" : [
        {
            "name" : "Scene",
            "nodes" : [
                0
            ]
        }
    ],
    "nodes" : [
        {
            "mesh" : 0,
            "name" : "top",
            "translation" : [
                0.18595683574676514,
                0.11662936210632324,
                0.15197338163852692
            ]
        }
    ],
    "materials" : [
        {
            "doubleSided" : true,
            "name" : "top texture",
            "pbrMetallicRoughness" : {
                "baseColorTexture" : {
                    "index" : 0,
                    "texCoord" : 0
                },
                "metallicFactor" : 0,
                "roughnessFactor" : 0.5
            }
        },
        {
            "doubleSided" : true,
            "name" : "keys texture",
            "pbrMetallicRoughness" : {
                "baseColorTexture" : {
                    "index" : 1,
                    "texCoord" : 0
                },
                "metallicFactor" : 0,
                "roughnessFactor" : 0.5
            }
        },
        {
            "doubleSided" : true,
            "name" : "black",
            "pbrMetallicRoughness" : {}
        },
        {
            "doubleSided" : true,
            "name" : "bottom texture",
            "pbrMetallicRoughness" : {
                "baseColorTexture" : {
                    "index" : 2,
                    "texCoord" : 0
                },
                "metallicFactor" : 0,
                "roughnessFactor" : 0.5
            }
        },
        {
            "doubleSided" : true,
            "name" : "Chrome",
            "pbrMetallicRoughness" : {}
        },
        {
            "doubleSided" : true,
            "name" : "black.001",
            "pbrMetallicRoughness" : {}
        }
    ],
    "meshes" : [
        {
            "name" : "top",
            "primitives" : [
                {
                    "attributes" : {
                        "POSITION" : 0,
                        "NORMAL" : 1,
                        "TEXCOORD_0" : 2
                    },
                    "indices" : 3,
                    "material" : 0
                },
                {
                    "attributes" : {
                        "POSITION" : 4,
                        "NORMAL" : 5,
                        "TEXCOORD_0" : 6
                    },
                    "indices" : 7,
                    "material" : 1
                },
                {
                    "attributes" : {
                        "POSITION" : 8,
                        "NORMAL" : 9,
                        "TEXCOORD_0" : 10
                    },
                    "indices" : 11,
                    "material" : 2
                },
                {
                    "attributes" : {
                        "POSITION" : 12,
                        "NORMAL" : 13,
                        "TEXCOORD_0" : 14
                    },
                    "indices" : 15,
                    "material" : 3
                },
                {
                    "attributes" : {
                        "POSITION" : 16,
                        "NORMAL" : 17,
                        "TEXCOORD_0" : 18
                    },
                    "indices" : 19,
                    "material" : 4
                },
                {
                    "attributes" : {
                        "POSITION" : 20,
                        "NORMAL" : 21,
                        "TEXCOORD_0" : 22
                    },
                    "indices" : 23,
                    "material" : 5
                }
            ]
        }
    ],
    "textures" : [
        {
            "source" : 0
        },
        {
            "source" : 1
        },
        {
            "source" : 2
        }
    ],
    "images" : [
        {
            "bufferView" : 4,
            "mimeType" : "image/jpeg",
            "name" : "toptextr"
        },
        {
            "bufferView" : 9,
            "mimeType" : "image/jpeg",
            "name" : "keystext"
        },
        {
            "bufferView" : 18,
            "mimeType" : "image/jpeg",
            "name" : "botttext"
        }
    ],
    "accessors" : [
        {
            "bufferView" : 0,
            "componentType" : 5126,
            "count" : 286,
            "max" : [
                4.794246196746826,
                5.2604594230651855,
                0.5038489103317261
            ],
            "min" : [
                -1.1243528127670288,
                -5.239428997039795,
                -0.03982700780034065
            ],
            "type" : "VEC3"
        },
        {
            "bufferView" : 1,
            "componentType" : 5126,
            "count" : 286,
            "type" : "VEC3"
        },
        {
            "bufferView" : 2,
            "componentType" : 5126,
            "count" : 286,
            "type" : "VEC2"
        },
        {
            "bufferView" : 3,
            "componentType" : 5123,
            "count" : 1482,
            "type" : "SCALAR"
        },
        {
            "bufferView" : 5,
            "componentType" : 5126,
            "count" : 3642,
            "max" : [
                -1.5372623205184937,
                4.0202107429504395,
                -0.15017332136631012
            ],
            "min" : [
                -3.7509548664093018,
                -4.011261463165283,
                -0.18285955488681793
            ],
            "type" : "VEC3"
        },
        {
            "bufferView" : 6,
            "componentType" : 5126,
            "count" : 3642,
            "type" : "VEC3"
        },
        {
            "bufferView" : 7,
            "componentType" : 5126,
            "count" : 3642,
            "type" : "VEC2"
        },
        {
            "bufferView" : 8,
            "componentType" : 5123,
            "count" : 6078,
            "type" : "SCALAR"
        },
        {
            "bufferView" : 10,
            "componentType" : 5126,
            "count" : 532,
            "max" : [
                4.459822177886963,
                4.4618964195251465,
                0.01570330187678337
            ],
            "min" : [
                -0.7882097959518433,
                -4.441013336181641,
                -0.039525408297777176
            ],
            "type" : "VEC3"
        },
        {
            "bufferView" : 11,
            "componentType" : 5126,
            "count" : 532,
            "type" : "VEC3"
        },
        {
            "bufferView" : 12,
            "componentType" : 5126,
            "count" : 532,
            "type" : "VEC2"
        },
        {
            "bufferView" : 13,
            "componentType" : 5123,
            "count" : 942,
            "type" : "SCALAR"
        },
        {
            "bufferView" : 14,
            "componentType" : 5126,
            "count" : 662,
            "max" : [
                1.614768385887146,
                5.78194522857666,
                0.4899981915950775
            ],
            "min" : [
                -4.343166351318359,
                -5.757501602172852,
                -1.0754972696304321
            ],
            "type" : "VEC3"
        },
        {
            "bufferView" : 15,
            "componentType" : 5126,
            "count" : 662,
            "type" : "VEC3"
        },
        {
            "bufferView" : 16,
            "componentType" : 5126,
            "count" : 662,
            "type" : "VEC2"
        },
        {
            "bufferView" : 17,
            "componentType" : 5123,
            "count" : 2715,
            "type" : "SCALAR"
        },
        {
            "bufferView" : 19,
            "componentType" : 5126,
            "count" : 36,
            "max" : [
                -3.7769644260406494,
                -3.0455775260925293,
                -0.4901944696903229
            ],
            "min" : [
                -3.995257616043091,
                -3.775496482849121,
                -0.7860718965530396
            ],
            "type" : "VEC3"
        },
        {
            "bufferView" : 20,
            "componentType" : 5126,
            "count" : 36,
            "type" : "VEC3"
        },
        {
            "bufferView" : 21,
            "componentType" : 5126,
            "count" : 36,
            "type" : "VEC2"
        },
        {
            "bufferView" : 22,
            "componentType" : 5123,
            "count" : 216,
            "type" : "SCALAR"
        },
        {
            "bufferView" : 23,
            "componentType" : 5126,
            "count" : 93,
            "max" : [
                -3.7769739627838135,
                -3.1902809143066406,
                -0.5381430387496948
            ],
            "min" : [
                -3.995252847671509,
                -3.634000301361084,
                -0.6624706983566284
            ],
            "type" : "VEC3"
        },
        {
            "bufferView" : 24,
            "componentType" : 5126,
            "count" : 93,
            "type" : "VEC3"
        },
        {
            "bufferView" : 25,
            "componentType" : 5126,
            "count" : 93,
            "type" : "VEC2"
        },
        {
            "bufferView" : 26,
            "componentType" : 5123,
            "count" : 474,
            "type" : "SCALAR"
        }
    ],
    "bufferViews" : [
        {
            "buffer" : 0,
            "byteLength" : 3432,
            "byteOffset" : 0
        },
        {
            "buffer" : 0,
            "byteLength" : 3432,
            "byteOffset" : 3432
        },
        {
            "buffer" : 0,
            "byteLength" : 2288,
            "byteOffset" : 6864
        },
        {
            "buffer" : 0,
            "byteLength" : 2964,
            "byteOffset" : 9152
        },
        {
            "buffer" : 0,
            "byteLength" : 424087,
            "byteOffset" : 12116
        },
        {
            "buffer" : 0,
            "byteLength" : 43704,
            "byteOffset" : 436204
        },
        {
            "buffer" : 0,
            "byteLength" : 43704,
            "byteOffset" : 479908
        },
        {
            "buffer" : 0,
            "byteLength" : 29136,
            "byteOffset" : 523612
        },
        {
            "buffer" : 0,
            "byteLength" : 12156,
            "byteOffset" : 552748
        },
        {
            "buffer" : 0,
            "byteLength" : 161342,
            "byteOffset" : 564904
        },
        {
            "buffer" : 0,
            "byteLength" : 6384,
            "byteOffset" : 726248
        },
        {
            "buffer" : 0,
            "byteLength" : 6384,
            "byteOffset" : 732632
        },
        {
            "buffer" : 0,
            "byteLength" : 4256,
            "byteOffset" : 739016
        },
        {
            "buffer" : 0,
            "byteLength" : 1884,
            "byteOffset" : 743272
        },
        {
            "buffer" : 0,
            "byteLength" : 7944,
            "byteOffset" : 745156
        },
        {
            "buffer" : 0,
            "byteLength" : 7944,
            "byteOffset" : 753100
        },
        {
            "buffer" : 0,
            "byteLength" : 5296,
            "byteOffset" : 761044
        },
        {
            "buffer" : 0,
            "byteLength" : 5430,
            "byteOffset" : 766340
        },
        {
            "buffer" : 0,
            "byteLength" : 595411,
            "byteOffset" : 771772
        },
        {
            "buffer" : 0,
            "byteLength" : 432,
            "byteOffset" : 1367184
        },
        {
            "buffer" : 0,
            "byteLength" : 432,
            "byteOffset" : 1367616
        },
        {
            "buffer" : 0,
            "byteLength" : 288,
            "byteOffset" : 1368048
        },
        {
            "buffer" : 0,
            "byteLength" : 432,
            "byteOffset" : 1368336
        },
        {
            "buffer" : 0,
            "byteLength" : 1116,
            "byteOffset" : 1368768
        },
        {
            "buffer" : 0,
            "byteLength" : 1116,
            "byteOffset" : 1369884
        },
        {
            "buffer" : 0,
            "byteLength" : 744,
            "byteOffset" : 1371000
        },
        {
            "buffer" : 0,
            "byteLength" : 948,
            "byteOffset" : 1371744
        }
    ],
    "buffers" : [
        {
            "byteLength" : 1372692,
            "uri" : "data:application/octet-stream;base64,"
        }
    ]
}
